<mxfile host="app.diagrams.net" modified="2024-02-27T15:18:49.634Z" agent="Mozilla/5.0 (X11; Ubuntu; Linux x86_64; rv:109.0) Gecko/20100101 Firefox/114.0" version="21.8.0" etag="jcwc27elpOcvPQ3VRPHa" type="github">
  <diagram name="PÃ¡gina-1" id="pcZ5pVdueY_tUoGDdJpq">
    <mxGraphModel>
      <root>
        <mxCell id="0" />
        <mxCell id="1" parent="0" />
      </root>
    </mxGraphModel>
  </diagram>
</mxfile>
